<mxfile host="app.diagrams.net" modified="2023-07-06T10:17:52.002Z" agent="Mozilla/5.0 (Windows NT 10.0; Win64; x64) AppleWebKit/537.36 (KHTML, like Gecko) Chrome/114.0.0.0 Safari/537.36" etag="jWcwrxp0Ep_bgmrZFTsz" version="21.5.0" type="device">
  <diagram name="Page-1" id="0vdm50g-7uDo8FLOXSuG">
    <mxGraphModel dx="1366" dy="750" grid="1" gridSize="10" guides="1" tooltips="1" connect="1" arrows="1" fold="1" page="1" pageScale="1" pageWidth="850" pageHeight="1100" math="0" shadow="0">
      <root>
        <mxCell id="0" />
        <mxCell id="1" parent="0" />
        <mxCell id="Jw4L3QtDFW7ji1vY2vT0-8" style="edgeStyle=orthogonalEdgeStyle;rounded=0;orthogonalLoop=1;jettySize=auto;html=1;entryX=0.5;entryY=0;entryDx=0;entryDy=0;exitX=0.5;exitY=1;exitDx=0;exitDy=0;" edge="1" parent="1" source="Jw4L3QtDFW7ji1vY2vT0-1" target="Jw4L3QtDFW7ji1vY2vT0-7">
          <mxGeometry relative="1" as="geometry" />
        </mxCell>
        <mxCell id="Jw4L3QtDFW7ji1vY2vT0-1" value="&lt;font color=&quot;#000000&quot; face=&quot;Verdana&quot;&gt;Document Generator&lt;/font&gt;" style="rounded=0;whiteSpace=wrap;html=1;fillColor=#bac8d3;strokeColor=#23445d;" vertex="1" parent="1">
          <mxGeometry x="388" y="220" width="120" height="60" as="geometry" />
        </mxCell>
        <mxCell id="Jw4L3QtDFW7ji1vY2vT0-5" value="" style="shape=image;html=1;verticalAlign=top;verticalLabelPosition=bottom;labelBackgroundColor=#ffffff;imageAspect=0;aspect=fixed;image=https://cdn1.iconfinder.com/data/icons/hawcons/32/699799-icon-37-file-xml-128.png;flipH=0;" vertex="1" parent="1">
          <mxGeometry x="250" y="345" width="70" height="70" as="geometry" />
        </mxCell>
        <mxCell id="Jw4L3QtDFW7ji1vY2vT0-28" style="edgeStyle=orthogonalEdgeStyle;rounded=0;orthogonalLoop=1;jettySize=auto;html=1;entryX=0.5;entryY=0;entryDx=0;entryDy=0;exitX=0.5;exitY=1;exitDx=0;exitDy=0;" edge="1" parent="1" source="Jw4L3QtDFW7ji1vY2vT0-33" target="Jw4L3QtDFW7ji1vY2vT0-27">
          <mxGeometry relative="1" as="geometry" />
        </mxCell>
        <mxCell id="Jw4L3QtDFW7ji1vY2vT0-7" value="" style="shape=image;html=1;verticalAlign=top;verticalLabelPosition=bottom;labelBackgroundColor=#ffffff;imageAspect=0;aspect=fixed;image=https://cdn3.iconfinder.com/data/icons/document-icons-2/30/647707-word-128.png;flipH=0;" vertex="1" parent="1">
          <mxGeometry x="418" y="345" width="60" height="60" as="geometry" />
        </mxCell>
        <mxCell id="Jw4L3QtDFW7ji1vY2vT0-13" style="edgeStyle=orthogonalEdgeStyle;rounded=0;orthogonalLoop=1;jettySize=auto;html=1;entryX=0.5;entryY=0;entryDx=0;entryDy=0;" edge="1" parent="1" source="Jw4L3QtDFW7ji1vY2vT0-9" target="Jw4L3QtDFW7ji1vY2vT0-12">
          <mxGeometry relative="1" as="geometry" />
        </mxCell>
        <mxCell id="Jw4L3QtDFW7ji1vY2vT0-18" style="edgeStyle=orthogonalEdgeStyle;rounded=0;orthogonalLoop=1;jettySize=auto;html=1;" edge="1" parent="1" source="Jw4L3QtDFW7ji1vY2vT0-9" target="Jw4L3QtDFW7ji1vY2vT0-1">
          <mxGeometry relative="1" as="geometry" />
        </mxCell>
        <mxCell id="Jw4L3QtDFW7ji1vY2vT0-21" style="edgeStyle=orthogonalEdgeStyle;rounded=0;orthogonalLoop=1;jettySize=auto;html=1;" edge="1" parent="1" source="Jw4L3QtDFW7ji1vY2vT0-9" target="Jw4L3QtDFW7ji1vY2vT0-20">
          <mxGeometry relative="1" as="geometry" />
        </mxCell>
        <mxCell id="Jw4L3QtDFW7ji1vY2vT0-9" value="&lt;font face=&quot;Verdana&quot;&gt;Investment Activity&lt;/font&gt;" style="shape=module;align=left;spacingLeft=20;align=center;verticalAlign=top;whiteSpace=wrap;html=1;" vertex="1" parent="1">
          <mxGeometry x="398" y="90" width="100" height="50" as="geometry" />
        </mxCell>
        <mxCell id="Jw4L3QtDFW7ji1vY2vT0-15" style="edgeStyle=orthogonalEdgeStyle;rounded=0;orthogonalLoop=1;jettySize=auto;html=1;entryX=0;entryY=0.5;entryDx=0;entryDy=0;" edge="1" parent="1" source="Jw4L3QtDFW7ji1vY2vT0-10" target="Jw4L3QtDFW7ji1vY2vT0-12">
          <mxGeometry relative="1" as="geometry" />
        </mxCell>
        <mxCell id="Jw4L3QtDFW7ji1vY2vT0-10" value="Liquid Template" style="sketch=0;pointerEvents=1;shadow=0;dashed=0;html=1;strokeColor=#10739e;fillColor=#b1ddf0;aspect=fixed;labelPosition=center;verticalLabelPosition=bottom;verticalAlign=top;align=center;outlineConnect=0;shape=mxgraph.vvd.template;" vertex="1" parent="1">
          <mxGeometry x="90" y="225" width="41" height="50" as="geometry" />
        </mxCell>
        <mxCell id="Jw4L3QtDFW7ji1vY2vT0-16" style="edgeStyle=orthogonalEdgeStyle;rounded=0;orthogonalLoop=1;jettySize=auto;html=1;" edge="1" parent="1" source="Jw4L3QtDFW7ji1vY2vT0-12" target="Jw4L3QtDFW7ji1vY2vT0-5">
          <mxGeometry relative="1" as="geometry" />
        </mxCell>
        <mxCell id="Jw4L3QtDFW7ji1vY2vT0-12" value="&lt;font face=&quot;Verdana&quot; color=&quot;#000000&quot;&gt;XML Generator&lt;/font&gt;" style="rounded=0;whiteSpace=wrap;html=1;fillColor=#bac8d3;strokeColor=#23445d;" vertex="1" parent="1">
          <mxGeometry x="225" y="220" width="120" height="60" as="geometry" />
        </mxCell>
        <mxCell id="Jw4L3QtDFW7ji1vY2vT0-19" value="" style="shape=image;html=1;verticalAlign=top;verticalLabelPosition=bottom;labelBackgroundColor=#ffffff;imageAspect=0;aspect=fixed;image=https://cdn1.iconfinder.com/data/icons/hawcons/32/699799-icon-37-file-xml-128.png" vertex="1" parent="1">
          <mxGeometry x="453" y="160" width="45" height="45" as="geometry" />
        </mxCell>
        <mxCell id="Jw4L3QtDFW7ji1vY2vT0-26" style="edgeStyle=orthogonalEdgeStyle;rounded=0;orthogonalLoop=1;jettySize=auto;html=1;" edge="1" parent="1" source="Jw4L3QtDFW7ji1vY2vT0-20" target="Jw4L3QtDFW7ji1vY2vT0-25">
          <mxGeometry relative="1" as="geometry" />
        </mxCell>
        <mxCell id="Jw4L3QtDFW7ji1vY2vT0-20" value="&lt;font color=&quot;#000000&quot; face=&quot;Verdana&quot;&gt;Document Processor&lt;/font&gt;" style="rounded=0;whiteSpace=wrap;html=1;fillColor=#bac8d3;strokeColor=#23445d;" vertex="1" parent="1">
          <mxGeometry x="550" y="220" width="120" height="60" as="geometry" />
        </mxCell>
        <mxCell id="Jw4L3QtDFW7ji1vY2vT0-24" style="edgeStyle=orthogonalEdgeStyle;rounded=0;orthogonalLoop=1;jettySize=auto;html=1;" edge="1" parent="1" source="Jw4L3QtDFW7ji1vY2vT0-23" target="Jw4L3QtDFW7ji1vY2vT0-20">
          <mxGeometry relative="1" as="geometry" />
        </mxCell>
        <mxCell id="Jw4L3QtDFW7ji1vY2vT0-23" value="" style="shape=image;html=1;verticalAlign=top;verticalLabelPosition=bottom;labelBackgroundColor=#ffffff;imageAspect=0;aspect=fixed;image=https://cdn3.iconfinder.com/data/icons/document-icons-2/30/647707-word-128.png;flipH=0;" vertex="1" parent="1">
          <mxGeometry x="580" y="345" width="60" height="60" as="geometry" />
        </mxCell>
        <mxCell id="Jw4L3QtDFW7ji1vY2vT0-25" value="&lt;font face=&quot;Verdana&quot;&gt;Rationale Data&lt;/font&gt;" style="html=1;whiteSpace=wrap;" vertex="1" parent="1">
          <mxGeometry x="720" y="225" width="110" height="50" as="geometry" />
        </mxCell>
        <mxCell id="Jw4L3QtDFW7ji1vY2vT0-30" style="edgeStyle=orthogonalEdgeStyle;rounded=0;orthogonalLoop=1;jettySize=auto;html=1;" edge="1" parent="1" source="Jw4L3QtDFW7ji1vY2vT0-27" target="Jw4L3QtDFW7ji1vY2vT0-29">
          <mxGeometry relative="1" as="geometry" />
        </mxCell>
        <mxCell id="Jw4L3QtDFW7ji1vY2vT0-27" value="&lt;font color=&quot;#000000&quot; face=&quot;Verdana&quot;&gt;Document &lt;br&gt;Handler&lt;/font&gt;" style="rounded=0;whiteSpace=wrap;html=1;fillColor=#bac8d3;strokeColor=#23445d;" vertex="1" parent="1">
          <mxGeometry x="470" y="480" width="120" height="60" as="geometry" />
        </mxCell>
        <mxCell id="Jw4L3QtDFW7ji1vY2vT0-29" value="&lt;font face=&quot;Verdana&quot;&gt;Generation Engine&lt;/font&gt;" style="shape=module;align=left;spacingLeft=20;align=center;verticalAlign=top;whiteSpace=wrap;html=1;" vertex="1" parent="1">
          <mxGeometry x="680" y="485" width="100" height="50" as="geometry" />
        </mxCell>
        <mxCell id="Jw4L3QtDFW7ji1vY2vT0-33" value="" style="rounded=0;whiteSpace=wrap;html=1;fillColor=none;" vertex="1" parent="1">
          <mxGeometry x="390" y="310" width="280" height="110" as="geometry" />
        </mxCell>
        <mxCell id="Jw4L3QtDFW7ji1vY2vT0-34" value="&lt;font style=&quot;font-size: 10px;&quot; face=&quot;Verdana&quot;&gt;Rationale Data&lt;/font&gt;" style="html=1;whiteSpace=wrap;" vertex="1" parent="1">
          <mxGeometry x="370" y="167.5" width="70" height="30" as="geometry" />
        </mxCell>
      </root>
    </mxGraphModel>
  </diagram>
</mxfile>
